<svg id="Layer_1" data-name="Layer 1" xmlns="http://www.w3.org/2000/svg" width="583.42" height="107.24" viewBox="0 0 583.42 107.24"><defs><style>.cls-1{fill:#779bd9;}.cls-1,.cls-2,.cls-3{stroke:#000;stroke-miterlimit:10;stroke-width:0.5px;}.cls-2{fill:#2f69ca;}.cls-3{fill:#fff;}</style></defs><path class="cls-1" d="M33.9,360.91a4.21,4.21,0,0,1-.44-2,6.25,6.25,0,0,1,.87-3.27,3.09,3.09,0,0,0,.36-1.38c0-1.11-.7-1.67-2.1-1.67H8.21c-1.35,0-2-.58-2-1.74a3.71,3.71,0,0,1,.51-1.74l18.14-31.35a6.74,6.74,0,0,1,2.43-2.47,5.88,5.88,0,0,1,3.08-1H79.1c1.31,0,2,.58,2,1.74a3.71,3.71,0,0,1-.51,1.74l-4.06,7a6.74,6.74,0,0,1-2.43,2.47,5.78,5.78,0,0,1-3,1H53.64c-1.35,0-2-.58-2-1.74a3.71,3.71,0,0,1,.51-1.74l2-3.49a3.62,3.62,0,0,0,.52-1.74c0-1.16-.65-1.74-2-1.74a5.71,5.71,0,0,0-3.05,1,7.47,7.47,0,0,0-2.47,2.47L33.1,345.6a3.71,3.71,0,0,0-.51,1.74c0,1.16.65,1.74,2,1.74a5.86,5.86,0,0,0,3.08-1,6.74,6.74,0,0,0,2.43-2.47l6-10.44a7.47,7.47,0,0,1,2.47-2.47,5.68,5.68,0,0,1,3-1H69c1.35,0,2,.58,2,1.74a3.35,3.35,0,0,1-.58,1.74L46.9,376.06c-.73,1.26-1.5,1.89-2.32,1.89a1.12,1.12,0,0,1-1-.73Z" transform="translate(-5.93 -313.98)"/><path class="cls-1" d="M167.48,314.25c1.31,0,2,.58,2,1.74a3.71,3.71,0,0,1-.51,1.74l-18.14,31.35a6.74,6.74,0,0,1-2.43,2.47,5.78,5.78,0,0,1-3,1H96.59c-1.35,0-2-.58-2-1.74a3.71,3.71,0,0,1,.51-1.74l18.14-31.35a6.74,6.74,0,0,1,2.43-2.47,5.88,5.88,0,0,1,3.08-1Zm-25,7a3.71,3.71,0,0,0,.51-1.74c0-1.16-.65-1.74-2-1.74a5.65,5.65,0,0,0-3,1,7.53,7.53,0,0,0-2.46,2.47l-14.08,24.38a3.62,3.62,0,0,0-.52,1.74c0,1.16.65,1.74,2,1.74a5.83,5.83,0,0,0,3.08-1,6.74,6.74,0,0,0,2.43-2.47Z" transform="translate(-5.93 -313.98)"/><path class="cls-1" d="M227.05,314.25c1.31,0,2,.58,2,1.74a3.71,3.71,0,0,1-.51,1.74l-18.07,31.35a7.47,7.47,0,0,1-2.47,2.47,5.68,5.68,0,0,1-3.05,1H180.53q-3.48,0-4.86-2.25l-9.58-16.4a3.25,3.25,0,0,1-.44-1.81,7.72,7.72,0,0,1,1.09-3.92l6-10.45a6.74,6.74,0,0,1,2.43-2.47,5.88,5.88,0,0,1,3.08-1h17.41c1.31,0,2,.58,2,1.74a3.71,3.71,0,0,1-.51,1.74L181,345.59a3.71,3.71,0,0,0-.51,1.74c0,1.16.68,1.74,2,1.74a5.78,5.78,0,0,0,3-1,6.74,6.74,0,0,0,2.43-2.47l16.11-27.86a6.65,6.65,0,0,1,2.43-2.46,5.86,5.86,0,0,1,3.08-1Z" transform="translate(-5.93 -313.98)"/><path class="cls-1" d="M287,314.25c1.31,0,2,.58,2,1.74a3.71,3.71,0,0,1-.51,1.74L270.3,349.08a6.74,6.74,0,0,1-2.43,2.47,5.78,5.78,0,0,1-3,1H216.1c-1.35,0-2-.58-2-1.74a3.71,3.71,0,0,1,.51-1.74l8-13.93a7.47,7.47,0,0,1,2.47-2.47,5.68,5.68,0,0,1,3.05-1h24.38a5.81,5.81,0,0,0,3.06-1,7.48,7.48,0,0,0,2.48-2.46l4-6.95a4.16,4.16,0,0,0,.46-1.76c0-1.17-.65-1.76-2-1.76a5.62,5.62,0,0,0-3,1,7.33,7.33,0,0,0-2.44,2.49l-2,3.49a6.71,6.71,0,0,1-2.44,2.44,5.86,5.86,0,0,1-3,1H230.18q-2,0-2-1.74a3.71,3.71,0,0,1,.51-1.74l4.06-7a6.74,6.74,0,0,1,2.43-2.47,5.88,5.88,0,0,1,3.08-1H287Zm-35,24.37a3.62,3.62,0,0,0,.52-1.74c0-1.16-.68-1.74-2-1.74a5.71,5.71,0,0,0-3.05,1,6.78,6.78,0,0,0-2.39,2.47l-4.06,7a3.71,3.71,0,0,0-.51,1.74c0,1.16.65,1.74,2,1.74a6,6,0,0,0,3.09-1,6.8,6.8,0,0,0,2.43-2.46Z" transform="translate(-5.93 -313.98)"/><path class="cls-1" d="M345.76,314.25c1.31,0,2,.58,2,1.74a3.71,3.71,0,0,1-.51,1.74l-18.14,31.35a6.74,6.74,0,0,1-2.43,2.47,5.78,5.78,0,0,1-3,1H306.22c-1.35,0-2-.58-2-1.74a3.71,3.71,0,0,1,.51-1.74l16.11-27.86a3.71,3.71,0,0,0,.51-1.74c0-1.16-.65-1.74-2-1.74a5.71,5.71,0,0,0-3.05,1,7.53,7.53,0,0,0-2.46,2.47L297.74,349.1a6.65,6.65,0,0,1-2.43,2.46,5.76,5.76,0,0,1-3,1H274.88c-1.36,0-2-.58-2-1.74a3.71,3.71,0,0,1,.51-1.74l18.14-31.35a6.74,6.74,0,0,1,2.43-2.47,5.88,5.88,0,0,1,3.08-1Z" transform="translate(-5.93 -313.98)"/><path class="cls-1" d="M404.9,314.25c1.31,0,2,.58,2,1.74a3.71,3.71,0,0,1-.51,1.74l-18.14,31.35a6.74,6.74,0,0,1-2.43,2.47,5.78,5.78,0,0,1-3,1H365.36c-1.35,0-2-.58-2-1.74a3.71,3.71,0,0,1,.51-1.74L380,321.23a3.71,3.71,0,0,0,.51-1.74c0-1.16-.65-1.74-2-1.74a5.71,5.71,0,0,0-3.05,1,7.53,7.53,0,0,0-2.46,2.47L356.88,349.1a6.65,6.65,0,0,1-2.43,2.46,5.76,5.76,0,0,1-3,1H334c-1.36,0-2-.58-2-1.74a3.71,3.71,0,0,1,.51-1.74l18.14-31.35a6.74,6.74,0,0,1,2.43-2.47,5.88,5.88,0,0,1,3.08-1Z" transform="translate(-5.93 -313.98)"/><path class="cls-2" d="M208.08,364.2a3.71,3.71,0,0,0,.51-1.74c0-1.16-.65-1.74-2-1.74a5.65,5.65,0,0,0-3,1,7.53,7.53,0,0,0-2.46,2.47L185.07,392.1a6.8,6.8,0,0,1-2.44,2.45,5.88,5.88,0,0,1-3,1H162.16q-2,0-2-1.74a3.81,3.81,0,0,1,.5-1.74l16.11-27.86a3.71,3.71,0,0,0,.51-1.74c0-1.16-.65-1.74-2-1.74a5.71,5.71,0,0,0-3.05,1,7.47,7.47,0,0,0-2.47,2.47l-16.11,27.86a6.74,6.74,0,0,1-2.43,2.47,5.78,5.78,0,0,1-3,1H130.8c-1.35,0-2-.58-2-1.74a3.71,3.71,0,0,1,.51-1.74l18.14-31.35a6.74,6.74,0,0,1,2.43-2.47,5.88,5.88,0,0,1,3.08-1H233c1.31,0,2,.58,2,1.74a3.71,3.71,0,0,1-.51,1.74l-33.67,58.34c-.72,1.26-1.5,1.89-2.32,1.89a1.12,1.12,0,0,1-1-.73l-9.65-16.33a4.21,4.21,0,0,1-.44-2,6.25,6.25,0,0,1,.87-3.27Z" transform="translate(-5.93 -313.98)"/><path class="cls-2" d="M291.52,357.24c1.31,0,2,.58,2,1.74a3.71,3.71,0,0,1-.51,1.74l-18.14,31.35a6.74,6.74,0,0,1-2.43,2.47,5.78,5.78,0,0,1-3,1H220.63c-1.36,0-2-.58-2-1.74a3.71,3.71,0,0,1,.51-1.74l18.14-31.35a6.74,6.74,0,0,1,2.43-2.47,5.86,5.86,0,0,1,3.08-1Zm-25,7a3.71,3.71,0,0,0,.51-1.74c0-1.16-.65-1.74-2-1.74a5.65,5.65,0,0,0-3,1,7.53,7.53,0,0,0-2.46,2.47l-14.08,24.38a3.62,3.62,0,0,0-.52,1.74c0,1.16.65,1.74,2,1.74a5.83,5.83,0,0,0,3.08-1,6.74,6.74,0,0,0,2.43-2.47Z" transform="translate(-5.93 -313.98)"/><path class="cls-2" d="M352.11,357.24c1.31,0,2,.58,2,1.74a3.71,3.71,0,0,1-.51,1.74l-4.06,7a6.74,6.74,0,0,1-2.43,2.47,5.78,5.78,0,0,1-3,1H326.65c-1.35,0-2-.58-2-1.74a3.71,3.71,0,0,1,.51-1.74l2-3.48a3.71,3.71,0,0,0,.51-1.74c0-1.16-.65-1.74-2-1.74a5.78,5.78,0,0,0-3,1,7.54,7.54,0,0,0-2.47,2.46L304,392.05a6.72,6.72,0,0,1-2.43,2.49,5.75,5.75,0,0,1-3,1H281.23c-1.35,0-2-.58-2-1.74a3.71,3.71,0,0,1,.51-1.74l18.14-31.35a6.74,6.74,0,0,1,2.43-2.47,5.88,5.88,0,0,1,3.08-1Z" transform="translate(-5.93 -313.98)"/><path class="cls-2" d="M411.25,357.24c1.31,0,2,.58,2,1.74a3.71,3.71,0,0,1-.51,1.74l-18.14,31.35a6.74,6.74,0,0,1-2.43,2.47,5.78,5.78,0,0,1-3,1H340.36c-1.35,0-2-.58-2-1.74a3.71,3.71,0,0,1,.51-1.74l8.05-13.93a7.47,7.47,0,0,1,2.47-2.47,5.68,5.68,0,0,1,3.05-1h24.38a5.81,5.81,0,0,0,3.06-1,7.48,7.48,0,0,0,2.48-2.46l4-6.95a4.16,4.16,0,0,0,.46-1.76c0-1.17-.65-1.76-2-1.76a5.62,5.62,0,0,0-3,1,7.43,7.43,0,0,0-2.44,2.49l-2,3.49a6.71,6.71,0,0,1-2.44,2.44,5.86,5.86,0,0,1-3,1H354.44q-2,0-2-1.74a3.71,3.71,0,0,1,.51-1.74l4.06-7a6.74,6.74,0,0,1,2.43-2.47,5.88,5.88,0,0,1,3.08-1h48.77Zm-35,24.37a3.62,3.62,0,0,0,.52-1.74c0-1.16-.68-1.74-2-1.74a5.71,5.71,0,0,0-3.05,1,6.89,6.89,0,0,0-2.4,2.47l-4.06,7a3.71,3.71,0,0,0-.51,1.74c0,1.16.65,1.74,2,1.74a6,6,0,0,0,3.09-1,6.8,6.8,0,0,0,2.43-2.46Z" transform="translate(-5.93 -313.98)"/><path class="cls-2" d="M470.39,357.24c1.31,0,2,.58,2,1.74a3.71,3.71,0,0,1-.51,1.74L453.7,392.07a6.74,6.74,0,0,1-2.43,2.47,5.78,5.78,0,0,1-3,1H399.5c-1.36,0-2-.58-2-1.74a3.71,3.71,0,0,1,.51-1.74l33.74-58.34q1.08-1.89,2.25-1.89a1.28,1.28,0,0,1,1.09.65l9.65,16.4a3.79,3.79,0,0,1,.44,2,6.63,6.63,0,0,1-.87,3.34,2.69,2.69,0,0,0-.44,1.38c0,1.11.72,1.67,2.18,1.67h24.37Zm-25,7a3.71,3.71,0,0,0,.51-1.74c0-1.16-.65-1.74-2-1.74a5.65,5.65,0,0,0-3,1,7.53,7.53,0,0,0-2.46,2.47L424.4,388.59a3.62,3.62,0,0,0-.52,1.74c0,1.16.65,1.74,2,1.74a5.83,5.83,0,0,0,3.08-1,6.74,6.74,0,0,0,2.43-2.47Z" transform="translate(-5.93 -313.98)"/><path class="cls-2" d="M495.27,419.06c-.72,1.26-1.5,1.89-2.32,1.89a1.25,1.25,0,0,1-1.09-.73l-9.58-16.33a3.47,3.47,0,0,1-.44-1.81,7.46,7.46,0,0,1,1.09-3.92l33.67-58.34a6.74,6.74,0,0,1,2.43-2.47,5.88,5.88,0,0,1,3.08-1h17.41c1.31,0,2,.58,2,1.74a3.71,3.71,0,0,1-.51,1.74l-4.06,7a3.71,3.71,0,0,0-.51,1.74c0,1.16.68,1.74,2,1.74q2.61,0,2.61,1.23t-1.89,1.74a8.83,8.83,0,0,1-2.76.51,5.71,5.71,0,0,0-3,1,7.47,7.47,0,0,0-2.47,2.47Z" transform="translate(-5.93 -313.98)"/><path class="cls-2" d="M587.14,357.24c1.31,0,2,.58,2,1.74a3.71,3.71,0,0,1-.51,1.74l-18.14,31.35a6.74,6.74,0,0,1-2.43,2.47,5.78,5.78,0,0,1-3,1H516.25c-1.36,0-2-.58-2-1.74a3.71,3.71,0,0,1,.51-1.74l18.14-31.35a6.74,6.74,0,0,1,2.43-2.47,5.86,5.86,0,0,1,3.08-1Zm-25,7a3.71,3.71,0,0,0,.51-1.74c0-1.16-.65-1.74-2-1.74a5.65,5.65,0,0,0-3,1,7.53,7.53,0,0,0-2.46,2.47l-14.08,24.38a3.62,3.62,0,0,0-.52,1.74c0,1.16.65,1.74,2,1.74a5.83,5.83,0,0,0,3.08-1,6.74,6.74,0,0,0,2.43-2.47Z" transform="translate(-5.93 -313.98)"/><path class="cls-1" d="M109.94,316c0-1.16-.65-1.74-2-1.74H90.57a5.83,5.83,0,0,0-3.08,1,6.74,6.74,0,0,0-2.43,2.47l-2.17,3.75h24.38l2.17-3.75A3.81,3.81,0,0,0,109.94,316Z" transform="translate(-5.93 -313.98)"/><path class="cls-1" d="M66.91,349.08a3.71,3.71,0,0,0-.51,1.74c0,1.16.68,1.74,2,1.74H85.84a5.78,5.78,0,0,0,3-1,6.74,6.74,0,0,0,2.43-2.47l14.46-25H81.37Z" transform="translate(-5.93 -313.98)"/><path class="cls-1" d="M435.37,316c0-1.16-.65-1.74-2-1.74H416a5.83,5.83,0,0,0-3.08,1,6.74,6.74,0,0,0-2.43,2.47l-2.17,3.75H432.7l2.17-3.75A3.81,3.81,0,0,0,435.37,316Z" transform="translate(-5.93 -313.98)"/><path class="cls-1" d="M392.35,349.08a3.71,3.71,0,0,0-.51,1.74c0,1.16.68,1.74,2,1.74h17.41a5.78,5.78,0,0,0,3-1,6.74,6.74,0,0,0,2.43-2.47l14.46-25H406.8Z" transform="translate(-5.93 -313.98)"/><path class="cls-2" d="M501.22,359c0-1.16-.65-1.74-2-1.74H481.85a5.83,5.83,0,0,0-3.08,1,6.74,6.74,0,0,0-2.43,2.47l-2.17,3.75h24.38l2.17-3.75A3.88,3.88,0,0,0,501.22,359Z" transform="translate(-5.93 -313.98)"/><path class="cls-2" d="M458.2,392.07a3.71,3.71,0,0,0-.51,1.74c0,1.16.68,1.74,2,1.74h17.41a5.78,5.78,0,0,0,3-1,6.74,6.74,0,0,0,2.43-2.47l14.46-25H472.65Z" transform="translate(-5.93 -313.98)"/><path class="cls-3" d="M24.76,352.56" transform="translate(-5.93 -313.98)"/></svg>